<svg id="Layer_1" data-name="Layer 1" xmlns="http://www.w3.org/2000/svg" viewBox="0 0 500 467.3"><defs><style>.cls-1{fill:#fff;}</style></defs><title>gear-it-logo</title><path class="cls-1" d="M483,186.2l-61.23-106a128,128,0,0,0-110.5-63.8H188.77a128,128,0,0,0-110.5,63.8L17,186.2a128,128,0,0,0,0,127.6L78.27,419.85a128,128,0,0,0,110.5,63.8H311.23a128,128,0,0,0,110.5-63.8L483,313.8A128,128,0,0,0,483,186.2ZM448.2,293.73,387,399.78a87.71,87.71,0,0,1-75.74,43.73H188.77A87.71,87.71,0,0,1,113,399.78l-61.23-106a87.72,87.72,0,0,1,0-87.46l61.23-106a87.71,87.71,0,0,1,75.74-43.73H311.23A87.71,87.71,0,0,1,387,100.22L448.2,206.27A87.72,87.72,0,0,1,448.2,293.73Z" transform="translate(0 -16.35)"/><path class="cls-1" d="M430.34,229.93H364.23l-23.18,40.14h45.62l-52.74,91.36a34,34,0,0,1-29.39,17H195.46a34,34,0,0,1-29.39-17L111.54,267a34,34,0,0,1,0-33.94l54.53-94.46a34,34,0,0,1,29.39-17H304.54a34,34,0,0,1,29.39,17l39.22,67.94H419.5l-50.81-88a74.27,74.27,0,0,0-64.15-37H195.46a74.27,74.27,0,0,0-64.15,37L76.77,213a74.29,74.29,0,0,0,0,74.08l54.54,94.46a74.27,74.27,0,0,0,64.15,37H304.54a74.27,74.27,0,0,0,64.15-37L423.23,287A74.3,74.3,0,0,0,430.34,229.93Z" transform="translate(0 -16.35)"/><polygon class="cls-1" points="287.1 253.72 317.64 253.72 340.81 213.58 310.28 213.58 287.1 253.72"/></svg>